<?xml version="1.0" encoding="utf-8"?>
<!-- Generator: Adobe Illustrator 24.1.2, SVG Export Plug-In . SVG Version: 6.00 Build 0)  -->
<svg version="1.1" id="Layer_1" xmlns="http://www.w3.org/2000/svg" xmlns:xlink="http://www.w3.org/1999/xlink" x="0px" y="0px"
	 viewBox="0 0 329.8 152.5" style="enable-background:new 0 0 329.8 152.5;" xml:space="preserve">
<style type="text/css">
	.st0{fill:#CF2030;}
</style>
<g>
	<g>
		<g>
			<path class="st0" d="M75.9,105.2c7.8,0,12.1-2.6,12.1-8.6c0-5.4-4-8.3-12.8-8.3h-17v16.8H75.9z M70.4,64.5
				c7.5,0,11.6-3.1,11.6-8.4c0-5.8-3.2-8.7-10.9-8.7h-13v17.1H70.4z M98.6,73c12.4,2.9,22.3,12.1,22.3,26.8c0,18.8-15.8,30-40.2,30
				H25.3v-107h54.3c19,0,35.3,7,35.3,28.1c0,11.3-8.4,18.8-16.4,21.9V73z"/>
		</g>
		<polygon class="st0" points="206.9,75.5 206.9,22.7 239,22.7 239,129.8 209.9,129.8 165.3,73.2 165,73.2 165,129.8 132.5,129.8 
			132.5,22.7 165,22.7 206.4,75.5 		"/>
		<polygon class="st0" points="252.8,22.7 285.7,22.7 252.8,55.5 		"/>
		<polygon class="st0" points="252.8,68 285.7,35.3 285.7,129.8 252.8,129.8 		"/>
	</g>
	<g>
		<path class="st0" d="M293.1,121.3c0.3-0.7,0.7-1.3,1.3-1.9c0.5-0.5,1.2-0.9,1.9-1.2c0.7-0.3,1.5-0.5,2.3-0.5
			c0.8,0,1.6,0.2,2.3,0.5c0.7,0.3,1.4,0.7,1.9,1.2c0.5,0.5,1,1.2,1.3,1.9c0.3,0.7,0.5,1.5,0.5,2.3c0,0.9-0.2,1.6-0.5,2.4
			c-0.3,0.7-0.7,1.4-1.3,1.9c-0.5,0.5-1.2,1-1.9,1.2c-0.7,0.3-1.5,0.4-2.3,0.4c-0.8,0-1.6-0.1-2.3-0.4c-0.7-0.3-1.4-0.7-1.9-1.2
			s-1-1.2-1.3-1.9c-0.3-0.7-0.5-1.5-0.5-2.4C292.6,122.8,292.7,122,293.1,121.3z M294,125.7c0.2,0.6,0.6,1.2,1,1.6
			c0.4,0.5,1,0.8,1.6,1.1c0.6,0.3,1.2,0.4,1.9,0.4c0.7,0,1.3-0.1,1.9-0.4c0.6-0.3,1.1-0.6,1.5-1.1c0.4-0.5,0.8-1,1-1.6
			c0.2-0.6,0.4-1.3,0.4-2c0-0.7-0.1-1.4-0.4-2c-0.2-0.6-0.6-1.1-1-1.6c-0.4-0.4-1-0.8-1.5-1.1c-0.6-0.3-1.2-0.4-1.9-0.4
			c-0.7,0-1.3,0.1-1.9,0.4c-0.6,0.3-1.1,0.6-1.6,1.1c-0.4,0.5-0.8,1-1,1.6c-0.2,0.6-0.4,1.3-0.4,2C293.7,124.4,293.8,125,294,125.7z
			"/>
		<g>
			<path class="st0" d="M299.4,124.1c0.5-0.1,0.9-0.2,1.3-0.5c0.3-0.3,0.5-0.7,0.5-1.3c0-0.6-0.2-1.1-0.6-1.4
				c-0.4-0.3-1-0.5-1.8-0.5h-2.6v6.7h1v-2.9h1.1l1.8,2.9h1.1L299.4,124.1z M298.4,123.4h-1.1v-2.2h1.4c0.2,0,0.4,0,0.5,0
				c0.2,0,0.3,0.1,0.5,0.2c0.1,0.1,0.3,0.2,0.3,0.3c0.1,0.1,0.1,0.3,0.1,0.6c0,0.3-0.1,0.5-0.2,0.6c-0.1,0.2-0.2,0.3-0.4,0.3
				c-0.2,0.1-0.4,0.1-0.6,0.1C298.9,123.4,298.7,123.4,298.4,123.4z"/>
		</g>
	</g>
</g>
</svg>
